<svg xmlns="http://www.w3.org/2000/svg" width="189.764" height="80" viewBox="0 0 189.764 80"><g id="Grupo_29952" data-name="Grupo 29952" transform="translate(-1311 -259)"><g id="Grupo_28485" data-name="Grupo 28485" transform="translate(0 -4)"><path id="Caminho_1" data-name="Caminho 1" d="M8.774,33.846a5.294,5.294,0,0,0,3.269,1.032,4.96,4.96,0,0,0,3.269-1.032,3.441,3.441,0,0,0,0-5.505A20.561,20.561,0,0,0,11.355,26.1C8.6,24.728,6.538,23.7,5.505,22.664a7.271,7.271,0,0,1-3.1-6.022,7.745,7.745,0,0,1,3.1-6.022A10.77,10.77,0,0,1,12.9,8.04a11.779,11.779,0,0,1,7.226,2.409,7.507,7.507,0,0,1,2.581,3.785l-7.57,1.72c-.172-.516-.344-.86-.516-.86a2.209,2.209,0,0,0-1.72-.688,4.215,4.215,0,0,0-2.065.688,2.1,2.1,0,0,0-.688,1.548,1.677,1.677,0,0,0,.688,1.548,14.72,14.72,0,0,0,3.269,1.892,35.41,35.41,0,0,1,6.71,3.785,9.032,9.032,0,0,1,0,14.452,13.824,13.824,0,0,1-8.774,2.925A13.824,13.824,0,0,1,3.269,38.32,10.264,10.264,0,0,1,0,33.158l7.742-1.376a3.367,3.367,0,0,0,1.032,2.065" transform="translate(1311 266.487)" fill="#fff"></path><path id="Caminho_2" data-name="Caminho 2" d="M71.171,12.857A14.6,14.6,0,0,0,59.988,8.04a14.858,14.858,0,0,0-11.183,4.817,16.518,16.518,0,0,0-4.645,11.7,16.633,16.633,0,0,0,4.645,11.871,14.858,14.858,0,0,0,11.183,4.817,14.6,14.6,0,0,0,11.183-4.817,16.633,16.633,0,0,0,4.645-11.871,16.518,16.518,0,0,0-4.645-11.7M59.988,34.018a8.447,8.447,0,0,1-6.194-2.581,9.207,9.207,0,0,1-2.753-6.882,9.09,9.09,0,0,1,2.753-6.71,8.616,8.616,0,0,1,6.194-2.753,8.707,8.707,0,0,1,6.366,2.753,9.645,9.645,0,0,1,2.581,6.71,9.768,9.768,0,0,1-2.581,6.882,8.559,8.559,0,0,1-6.366,2.581" transform="translate(1330.152 266.487)" fill="#fff"></path><path id="Caminho_3" data-name="Caminho 3" d="M117.611,12.909a15.027,15.027,0,0,0-22.366,0,16.518,16.518,0,0,0-4.645,11.7,16.633,16.633,0,0,0,4.645,11.871,15.389,15.389,0,0,0,22.366,0,16.633,16.633,0,0,0,4.645-11.871,16.518,16.518,0,0,0-4.645-11.7M106.428,34.071a8.614,8.614,0,0,1-6.366-2.753,9.077,9.077,0,0,1-2.581-6.71,9.645,9.645,0,0,1,2.581-6.71,8.737,8.737,0,0,1,12.731,0,9.645,9.645,0,0,1,2.581,6.71,9.077,9.077,0,0,1-2.581,6.71,8.352,8.352,0,0,1-6.366,2.753" transform="translate(1350.293 266.435)" fill="#fff"></path><path id="Caminho_4" data-name="Caminho 4" d="M133.774,20.16h0L93,71.257l.516-.516L93,71.257l40.258-35.269H149.43Z" transform="translate(1351.334 271.743)" fill="#00adee"></path><rect id="Ret&#xE2;ngulo_2" data-name="Ret&#xE2;ngulo 2" width="7.226" height="33.548" transform="translate(1338.871 274.354)" fill="#fff"></rect><path id="Caminho_5" data-name="Caminho 5" d="M26.39,3.441a3.451,3.451,0,0,1-3.441,3.441A3.308,3.308,0,0,1,19.68,3.441,3.308,3.308,0,0,1,22.949,0,3.451,3.451,0,0,1,26.39,3.441" transform="translate(1319.535 263)" fill="#fff"></path><path id="Caminho_6" data-name="Caminho 6" d="M90.834,31.318a8.1,8.1,0,0,1-6.366,2.753,8,8,0,0,1-6.194-2.753,8.58,8.58,0,0,1-2.753-6.71,9.09,9.09,0,0,1,2.753-6.71,8,8,0,0,1,6.194-2.753A8.1,8.1,0,0,1,90.834,17.9a.168.168,0,0,0,.172.172L97.2,14.63a13.969,13.969,0,0,0-1.548-1.72A14.5,14.5,0,0,0,84.468,7.92a15.029,15.029,0,0,0-11.183,4.989,16.518,16.518,0,0,0-4.645,11.7,16.633,16.633,0,0,0,4.645,11.871A14.858,14.858,0,0,0,84.468,41.3a14.349,14.349,0,0,0,11.183-4.817A14.976,14.976,0,0,0,97.2,34.587l-6.194-3.441a.168.168,0,0,1-.172.172" transform="translate(1340.77 266.435)" fill="#fff"></path><path id="Caminho_7" data-name="Caminho 7" d="M35.254,26.1a2.182,2.182,0,0,1,.172-1.032A9.439,9.439,0,0,1,44.544,16.3a8.334,8.334,0,0,1,3.1.516l1.2.344V8.212H46.953c-3.441.172-8.6,2.409-11.7,4.3l.172-4.473H28.2v33.2h6.882Z" transform="translate(1323.23 266.487)" fill="#fff"></path></g></g></svg>