<?xml version="1.0" encoding="UTF-8" standalone="no"?>
<!-- Created with Inkscape (http://www.inkscape.org/) -->

<svg
   version="1.1"
   id="svg2"
   width="1122.52"
   height="793.70135"
   viewBox="0 0 1122.52 793.70135"
   sodipodi:docname="Logo_no_description_white.ai"
   xmlns:inkscape="http://www.inkscape.org/namespaces/inkscape"
   xmlns:sodipodi="http://sodipodi.sourceforge.net/DTD/sodipodi-0.dtd"
   xmlns="http://www.w3.org/2000/svg"
   xmlns:svg="http://www.w3.org/2000/svg">
  <defs
     id="defs6">
    <clipPath
       clipPathUnits="userSpaceOnUse"
       id="clipPath16">
      <path
         d="M 0,595.276 H 841.89 V 0 H 0 Z"
         id="path14" />
    </clipPath>
  </defs>
  <sodipodi:namedview
     id="namedview4"
     pagecolor="#ffffff"
     bordercolor="#000000"
     borderopacity="0.25"
     inkscape:showpageshadow="2"
     inkscape:pageopacity="0.0"
     inkscape:pagecheckerboard="0"
     inkscape:deskcolor="#d1d1d1" />
  <g
     id="g8"
     inkscape:groupmode="layer"
     inkscape:label="Logo_no_description_white"
     transform="matrix(1.3333333,0,0,-1.3333333,0,793.70133)">
    <g
       id="g10">
      <g
         id="g12"
         clip-path="url(#clipPath16)">
        <g
           id="g18"
           transform="translate(153.6147,313.4152)">
          <path
             d="m 0,0 v -18.187 c 3.241,0 6.418,0.042 9.594,-0.011 3.013,-0.051 5.422,1.13 7.294,3.41 2.236,2.724 2.761,5.846 1.549,9.101 -1.181,3.169 -3.568,5.337 -6.968,5.616 C 7.691,0.239 3.869,0 0,0 m 13.251,11.969 c 1.138,-0.231 2.291,-0.408 3.412,-0.701 8.599,-2.251 14.899,-10.254 15.125,-19.114 0.119,-4.681 -0.673,-9.104 -3.396,-13.039 -2.093,-3.023 -4.904,-5.212 -8.107,-6.945 -0.287,-0.156 -0.576,-0.31 -0.904,-0.485 4.118,-7.798 8.214,-15.557 12.39,-23.466 h -1.024 c -3.748,0 -7.496,0.017 -11.244,-0.017 -0.669,-0.007 -0.995,0.225 -1.3,0.801 -3.498,6.601 -7.041,13.179 -10.525,19.787 -0.456,0.866 -0.926,1.265 -1.964,1.207 -1.88,-0.105 -3.769,-0.03 -5.746,-0.03 v -21.683 h -12.271 v 63.685 z"
             style="fill:#ffffff;fill-opacity:1;fill-rule:nonzero;stroke:none"
             id="path20" />
        </g>
        <g
           id="g22"
           transform="translate(326.1748,295.1057)">
          <path
             d="m 0,0 c 3.236,0 6.411,0.043 9.583,-0.014 2.937,-0.051 5.316,1.056 7.19,3.251 2.313,2.708 2.902,5.838 1.722,9.148 -1.15,3.226 -3.551,5.261 -6.974,5.753 C 9.607,18.413 7.634,18.281 5.687,18.304 3.806,18.325 1.925,18.308 0,18.308 Z m 13.272,30.155 c 1.138,-0.231 2.29,-0.408 3.412,-0.702 C 25.283,27.203 31.583,19.199 31.808,10.34 31.927,5.659 31.135,1.236 28.413,-2.698 26.32,-5.723 23.508,-7.91 20.306,-9.645 20.018,-9.8 19.729,-9.953 19.402,-10.129 c 4.117,-7.798 8.214,-15.558 12.39,-23.467 h -1.024 c -3.748,0 -7.497,0.019 -11.244,-0.016 -0.67,-0.006 -0.995,0.224 -1.3,0.8 -3.498,6.602 -7.042,13.179 -10.525,19.788 -0.457,0.867 -0.927,1.264 -1.964,1.207 -1.88,-0.106 -3.77,-0.03 -5.746,-0.03 V -33.53 h -12.271 v 63.685 z"
             style="fill:#ffffff;fill-opacity:1;fill-rule:nonzero;stroke:none"
             id="path24" />
        </g>
        <g
           id="g26"
           transform="translate(647.1768,325.2604)">
          <path
             d="m 0,0 v -63.729 h -12.2 v 25.971 h -23.409 v -25.95 H -48.05 V 0 h 12.418 v -26.145 h 23.395 V 0 Z"
             style="fill:#ffffff;fill-opacity:1;fill-rule:nonzero;stroke:none"
             id="path28" />
        </g>
        <g
           id="g30"
           transform="translate(274.7261,313.3913)">
          <path
             d="m 0,0 v -18.107 c 3.299,0 6.533,-0.003 9.768,10e-4 5.025,0.007 8.574,3.261 9.005,8.252 0.43,4.968 -3.217,9.568 -8.019,9.818 C 7.2,0.148 3.627,0 0,0 m 13.252,11.869 c 1.423,-0.318 2.88,-0.53 4.264,-0.971 9.046,-2.886 14.713,-11.527 14.382,-21.172 -0.34,-9.941 -8.586,-18.207 -17.459,-19.435 -1.125,-0.156 -2.269,-0.225 -3.404,-0.234 -3.656,-0.028 -7.312,-0.011 -11.099,-0.011 v -10.945 -10.914 h -12.238 v 63.682 z"
             style="fill:#ffffff;fill-opacity:1;fill-rule:nonzero;stroke:none"
             id="path32" />
        </g>
        <g
           id="g34"
           transform="translate(24.8784,261.9885)">
          <path
             d="m 0,0 c 0.136,0.252 0.302,0.491 0.404,0.756 7.961,20.553 15.923,41.106 23.854,61.671 0.287,0.746 0.632,0.966 1.413,0.956 3.687,-0.046 7.374,-0.021 11.055,-0.021 0.542,-0.579 0.337,-1.151 0.101,-1.752 -4.704,-11.951 -9.4,-23.904 -14.096,-35.858 -0.14,-0.355 -0.26,-0.717 -0.408,-1.128 h 17.151 c -0.136,0.362 -0.244,0.662 -0.362,0.958 -1.152,2.885 -2.321,5.763 -3.443,8.659 -0.146,0.376 -0.188,0.896 -0.048,1.262 1.885,4.938 3.81,9.862 5.728,14.788 0.062,0.159 0.151,0.308 0.297,0.603 C 48.292,33.768 54.885,16.78 61.525,-0.328 h -0.952 c -3.658,0 -7.317,0.017 -10.975,-0.017 -0.678,-0.007 -0.988,0.19 -1.216,0.841 -1.346,3.832 -2.76,7.641 -4.107,11.473 -0.219,0.622 -0.519,0.792 -1.154,0.79 C 34.964,12.737 26.807,12.736 18.65,12.761 18.002,12.763 17.716,12.553 17.481,11.966 15.994,8.251 14.437,4.562 12.975,0.837 12.63,-0.041 12.221,-0.371 11.242,-0.355 7.496,-0.299 3.748,-0.349 0,-0.358 Z"
             style="fill:#ffffff;fill-opacity:1;fill-rule:nonzero;stroke:none"
             id="path36" />
        </g>
        <g
           id="g38"
           transform="translate(665.7539,261.382)">
          <path
             d="m 0,0 h -11.845 v 63.699 h 0.923 c 3.209,0 6.419,-0.025 9.628,0.018 0.773,0.011 1.221,-0.206 1.652,-0.878 8.61,-13.384 17.248,-26.75 25.882,-40.119 0.178,-0.276 0.363,-0.546 0.667,-1.005 V 63.614 H 39.101 V -0.022 h -0.808 c -3.3,0 -6.599,0.015 -9.897,-0.014 C 27.788,-0.041 27.439,0.146 27.102,0.658 18.292,14.021 9.463,27.37 0.636,40.722 0.472,40.97 0.299,41.212 0,41.645 Z"
             style="fill:#ffffff;fill-opacity:1;fill-rule:nonzero;stroke:none"
             id="path40" />
        </g>
        <g
           id="g42"
           transform="translate(202.5811,293.343)">
          <path
             d="M 0,0 C 0.146,-1.395 0.235,-2.799 0.449,-4.184 2.286,-16.082 15.198,-23.91 26.492,-19.682 41.771,-13.961 42.9,3.065 36.139,12.386 28.671,22.682 15.992,22.217 9.365,17.74 3.104,13.511 0.095,7.528 0,0 m 51.745,-0.109 c -0.004,-18 -13.62,-31.537 -31.623,-31.618 -19.558,-0.086 -31.912,16.315 -31.76,31.867 0.175,17.822 14.18,31.798 32.038,31.902 16.623,0.096 31.696,-14.68 31.345,-32.151"
             style="fill:#ffffff;fill-opacity:1;fill-rule:nonzero;stroke:none"
             id="path44" />
        </g>
        <g
           id="g46"
           transform="translate(375.3418,293.0676)">
          <path
             d="M 0,0 C 0.146,-1.395 0.235,-2.798 0.449,-4.183 2.286,-16.082 15.197,-23.91 26.491,-19.682 41.77,-13.962 42.9,3.064 36.139,12.386 28.671,22.682 15.992,22.218 9.365,17.741 3.104,13.511 0.095,7.528 0,0 M 20.149,-31.708 C 0.57,-31.89 -11.781,-15.42 -11.637,0.112 -11.47,17.948 2.524,31.928 20.372,32.043 37.011,32.15 52.01,17.344 51.789,-0.262 51.566,-18.111 38.06,-31.712 20.149,-31.708"
             style="fill:#ffffff;fill-opacity:1;fill-rule:nonzero;stroke:none"
             id="path48" />
        </g>
        <g
           id="g50"
           transform="translate(779.4248,261.3596)">
          <path
             d="m 0,0 h -7.189 c -2.161,0 -4.32,0.028 -6.479,-0.017 -0.652,-0.012 -1.012,0.217 -1.371,0.74 -6.141,8.923 -12.301,17.832 -18.458,26.742 -0.166,0.24 -0.346,0.472 -0.634,0.863 V 0.067 h -12.231 v 63.556 h 12.167 V 35.311 c 0.32,0.411 0.504,0.623 0.662,0.853 6.147,8.916 12.297,17.831 18.425,26.761 0.378,0.551 0.755,0.788 1.449,0.782 4.198,-0.037 8.397,-0.018 12.596,-0.018 h 0.985 C -7.411,52.979 -14.66,42.389 -21.96,31.727 -14.683,21.213 -7.402,10.694 0,0"
             style="fill:#ffffff;fill-opacity:1;fill-rule:nonzero;stroke:none"
             id="path52" />
        </g>
        <g
           id="g54"
           transform="translate(131.9102,325.3029)">
          <path
             d="M 0,0 V -11.761 H -26.345 V -26.132 H 0 V -37.601 H -26.357 V -51.76 H -0.02 V -63.604 H -38.213 V 0 Z"
             style="fill:#ffffff;fill-opacity:1;fill-rule:nonzero;stroke:none"
             id="path56" />
        </g>
        <g
           id="g58"
           transform="translate(499.4746,287.4191)">
          <path
             d="M 0,0 V -14.191 H 26.345 V -26.006 H -11.878 V 37.596 H 26.354 V 25.815 H 13.216 0.021 V 11.468 H 26.365 V 0 Z"
             style="fill:#ffffff;fill-opacity:1;fill-rule:nonzero;stroke:none"
             id="path60" />
        </g>
        <g
           id="g62"
           transform="translate(591.9131,312.8449)">
          <path
             d="m 0,0 c -2.703,-2.347 -5.41,-4.697 -8.12,-7.051 -7.67,10.514 -23.206,11.067 -32.001,1.825 -7.91,-8.312 -7.658,-21.38 0.693,-29.463 8.6,-8.325 23.14,-8.029 31.296,2.501 2.715,-2.342 5.427,-4.682 8.135,-7.018 -7.276,-9.589 -20.463,-14.909 -33.888,-11.001 -13.698,3.987 -23,16.511 -22.966,30.843 0.033,13.944 9.492,26.414 23.036,30.34 C -20.191,14.925 -7.005,9.253 0,0"
             style="fill:#ffffff;fill-opacity:1;fill-rule:nonzero;stroke:none"
             id="path64" />
        </g>
        <g
           id="g66"
           transform="translate(452.4932,313.2365)">
          <path
             d="M 0,0 H -17.111 V 11.792 H 29.962 V 0.029 H 12.585 V -51.775 H 0 Z"
             style="fill:#ffffff;fill-opacity:1;fill-rule:nonzero;stroke:none"
             id="path68" />
        </g>
        <path
           d="m 712.564,325.002 h 11.724 v -63.567 h -11.724 z"
           style="fill:#ffffff;fill-opacity:1;fill-rule:nonzero;stroke:none"
           id="path70" />
        <g
           id="g72"
           transform="translate(767.5107,307.8488)">
          <path
             d="m 0,0 c 3.91,5.694 7.725,11.249 11.622,16.925 -0.393,0.033 -0.641,0.073 -0.889,0.074 -4.224,0.003 -8.45,-0.009 -12.674,0.015 -0.608,0.004 -0.971,-0.186 -1.316,-0.693 -3.024,-4.452 -6.088,-8.878 -9.113,-13.33 -0.371,-0.546 -0.704,-0.707 -1.385,-0.573 -2.521,0.499 -5.059,0.923 -7.598,1.333 -0.686,0.111 -0.926,0.378 -0.919,1.098 0.038,3.648 0.017,7.296 0.017,10.943 v 1.134 H -34.456 V 6.154 c -1.524,0.247 -2.904,0.46 -4.279,0.696 -1.208,0.207 -2.407,0.489 -3.621,0.641 -0.678,0.085 -0.817,0.379 -0.81,0.991 0.027,2.481 0.012,4.963 0.012,7.445 v 0.999 c -0.342,0.032 -0.575,0.072 -0.806,0.072 -3.416,0.004 -6.832,-0.019 -10.247,0.021 -0.76,0.008 -0.897,-0.284 -0.885,-0.946 0.034,-1.734 0.012,-3.469 0.012,-5.203 V 9.771 c -2.582,0.456 -5.041,0.89 -7.581,1.339 0,1.756 -0.004,3.455 0.003,5.154 0.001,0.423 -0.017,0.757 -0.601,0.754 -3.831,-0.015 -7.663,-0.008 -11.609,-0.008 v -3.734 c -14.629,2.595 -29.118,5.165 -43.683,7.748 -0.334,2.357 -0.664,4.683 -1.009,7.117 0.354,0.033 0.635,0.085 0.916,0.082 10.964,-0.114 21.927,-0.233 32.89,-0.351 11.084,-0.119 22.167,-0.238 33.25,-0.356 11.054,-0.119 22.107,-0.236 33.16,-0.354 11.024,-0.119 22.046,-0.236 33.07,-0.359 1.827,-0.02 3.654,-0.082 5.481,-0.081 0.551,10e-4 0.832,-0.185 1.091,-0.679 6.348,-12.117 12.716,-24.224 19.081,-36.332 3.002,-5.71 6.006,-11.419 9.008,-17.129 0.179,-0.342 0.348,-0.689 0.591,-1.17 -1.476,-0.109 -2.861,-0.213 -4.247,-0.312 -0.148,-0.011 -0.309,0.033 -0.447,-0.008 -1.718,-0.515 -2.892,0.402 -4.157,1.384 -11.109,8.619 -22.265,17.18 -33.371,25.805 -1.113,0.865 -2.38,0.863 -3.609,1.146 C 2.159,-0.345 1.151,-0.206 0,0"
             style="fill:#c90000;fill-opacity:1;fill-rule:nonzero;stroke:none"
             id="path74" />
        </g>
      </g>
    </g>
  </g>
</svg>
